<svg width="1491" height="595" viewBox="0 0 1491 595" fill="none" xmlns="http://www.w3.org/2000/svg">
<path d="M579.35 462.1H598L618.1 511.7H618.75L618.2 484.45V462.1H630.75V526H612.65L592.05 475.5H591.4L591.95 503.6V526H579.35V462.1ZM663.963 527.35C656.363 527.35 650.596 525.4 646.663 521.5C642.763 517.6 640.813 512.05 640.813 504.85V498.2C640.813 490.967 642.763 485.4 646.663 481.5C650.596 477.567 656.363 475.6 663.963 475.6C671.529 475.6 677.263 477.567 681.163 481.5C685.063 485.4 687.013 490.967 687.013 498.2V504.85C687.013 512.05 685.063 517.6 681.163 521.5C677.296 525.4 671.563 527.35 663.963 527.35ZM663.963 517.1C667.296 517.1 669.829 516.1 671.563 514.1C673.329 512.1 674.213 509.233 674.213 505.5V497.55C674.213 493.75 673.329 490.85 671.563 488.85C669.829 486.817 667.296 485.8 663.963 485.8C660.596 485.8 658.029 486.817 656.263 488.85C654.529 490.85 653.663 493.75 653.663 497.55V505.5C653.663 509.233 654.529 512.1 656.263 514.1C658.029 516.1 660.596 517.1 663.963 517.1ZM733.27 527.15C727.503 527.15 723.12 525.283 720.12 521.55C717.12 517.817 715.62 512.317 715.62 505.05V498.3C715.62 490.933 717.136 485.35 720.17 481.55C723.203 477.75 727.72 475.85 733.72 475.85C736.686 475.85 739.186 476.317 741.22 477.25C743.253 478.183 744.903 479.517 746.17 481.25C747.436 482.983 748.336 485.017 748.87 487.35H752.57L749.17 496.85C749.103 494.517 748.603 492.55 747.67 490.95C746.77 489.35 745.536 488.15 743.97 487.35C742.403 486.55 740.553 486.15 738.42 486.15C735.22 486.15 732.77 487.1 731.07 489C729.37 490.867 728.52 493.667 728.52 497.4V505.35C728.52 509.05 729.37 511.833 731.07 513.7C732.803 515.567 735.303 516.5 738.57 516.5C740.47 516.5 742.153 516.15 743.62 515.45C745.086 514.75 746.303 513.8 747.27 512.6C748.27 511.367 748.986 509.983 749.42 508.45L752.37 515.6H748.77C748.27 517.733 747.42 519.683 746.22 521.45C745.02 523.183 743.37 524.567 741.27 525.6C739.203 526.633 736.536 527.15 733.27 527.15ZM761.77 543.2H748.97V527.05L749.32 513.45L749.17 511.35V491.3L749.42 488.65L748.97 476.95H761.77V543.2ZM772.436 476.95H785.236V506.45C785.236 508.483 785.503 510.267 786.036 511.8C786.603 513.3 787.519 514.467 788.786 515.3C790.086 516.1 791.819 516.5 793.986 516.5C795.953 516.5 797.653 516.15 799.086 515.45C800.519 514.75 801.703 513.817 802.636 512.65C803.569 511.45 804.253 510.117 804.686 508.65L806.686 515.6H804.286C803.753 517.733 802.853 519.683 801.586 521.45C800.353 523.183 798.653 524.567 796.486 525.6C794.353 526.633 791.669 527.15 788.436 527.15C784.703 527.15 781.653 526.433 779.286 525C776.953 523.567 775.219 521.45 774.086 518.65C772.986 515.85 772.436 512.4 772.436 508.3V476.95ZM804.386 476.95H817.186V526H804.436L804.886 514.1L804.386 513.05V476.95ZM851.455 527.2C843.055 527.2 836.805 525.267 832.705 521.4C828.605 517.533 826.555 511.933 826.555 504.6V498.2C826.555 490.933 828.471 485.35 832.305 481.45C836.138 477.55 841.705 475.6 849.005 475.6C853.938 475.6 858.055 476.467 861.355 478.2C864.655 479.933 867.121 482.4 868.755 485.6C870.421 488.767 871.255 492.567 871.255 497V498.75C871.255 499.95 871.188 501.183 871.055 502.45C870.955 503.683 870.805 504.85 870.605 505.95H859.005C859.105 504.117 859.155 502.383 859.155 500.75C859.188 499.083 859.205 497.583 859.205 496.25C859.205 493.95 858.838 492 858.105 490.4C857.371 488.767 856.255 487.533 854.755 486.7C853.255 485.867 851.338 485.45 849.005 485.45C845.571 485.45 843.038 486.4 841.405 488.3C839.771 490.2 838.955 492.9 838.955 496.4V500.95L839.005 502.4V506.25C839.005 507.783 839.238 509.2 839.705 510.5C840.205 511.8 841.021 512.933 842.155 513.9C843.288 514.833 844.788 515.567 846.655 516.1C848.555 516.633 850.921 516.9 853.755 516.9C856.821 516.9 859.738 516.567 862.505 515.9C865.305 515.2 867.955 514.267 870.455 513.1L869.355 523.2C867.121 524.433 864.488 525.4 861.455 526.1C858.455 526.833 855.121 527.2 851.455 527.2ZM868.005 505.95H833.355V497.45H868.005V505.95ZM879.76 476.95H892.56V506.45C892.56 508.483 892.827 510.267 893.36 511.8C893.927 513.3 894.843 514.467 896.11 515.3C897.41 516.1 899.143 516.5 901.31 516.5C903.277 516.5 904.977 516.15 906.41 515.45C907.843 514.75 909.027 513.817 909.96 512.65C910.893 511.45 911.577 510.117 912.01 508.65L914.01 515.6H911.61C911.077 517.733 910.177 519.683 908.91 521.45C907.677 523.183 905.977 524.567 903.81 525.6C901.677 526.633 898.993 527.15 895.76 527.15C892.027 527.15 888.977 526.433 886.61 525C884.277 523.567 882.543 521.45 881.41 518.65C880.31 515.85 879.76 512.4 879.76 508.3V476.95ZM911.71 476.95H924.51V526H911.76L912.21 514.1L911.71 513.05V476.95ZM958.779 527.2C950.379 527.2 944.129 525.267 940.029 521.4C935.929 517.533 933.879 511.933 933.879 504.6V498.2C933.879 490.933 935.796 485.35 939.629 481.45C943.462 477.55 949.029 475.6 956.329 475.6C961.262 475.6 965.379 476.467 968.679 478.2C971.979 479.933 974.446 482.4 976.079 485.6C977.746 488.767 978.579 492.567 978.579 497V498.75C978.579 499.95 978.512 501.183 978.379 502.45C978.279 503.683 978.129 504.85 977.929 505.95H966.329C966.429 504.117 966.479 502.383 966.479 500.75C966.512 499.083 966.529 497.583 966.529 496.25C966.529 493.95 966.162 492 965.429 490.4C964.696 488.767 963.579 487.533 962.079 486.7C960.579 485.867 958.662 485.45 956.329 485.45C952.896 485.45 950.362 486.4 948.729 488.3C947.096 490.2 946.279 492.9 946.279 496.4V500.95L946.329 502.4V506.25C946.329 507.783 946.562 509.2 947.029 510.5C947.529 511.8 948.346 512.933 949.479 513.9C950.612 514.833 952.112 515.567 953.979 516.1C955.879 516.633 958.246 516.9 961.079 516.9C964.146 516.9 967.062 516.567 969.829 515.9C972.629 515.2 975.279 514.267 977.779 513.1L976.679 523.2C974.446 524.433 971.812 525.4 968.779 526.1C965.779 526.833 962.446 527.2 958.779 527.2ZM975.329 505.95H940.679V497.45H975.329V505.95ZM1004.63 527.2C1000.69 527.2 997.194 526.817 994.127 526.05C991.094 525.317 988.511 524.483 986.377 523.55L985.227 512.45C987.761 513.617 990.544 514.633 993.577 515.5C996.644 516.367 1000.01 516.8 1003.68 516.8C1006.88 516.8 1009.19 516.4 1010.63 515.6C1012.06 514.767 1012.78 513.533 1012.78 511.9V511.6C1012.78 510.5 1012.44 509.6 1011.78 508.9C1011.14 508.2 1010.01 507.567 1008.38 507C1006.74 506.4 1004.44 505.767 1001.48 505.1C997.377 504.133 994.127 503.017 991.727 501.75C989.361 500.45 987.661 498.867 986.627 497C985.594 495.1 985.077 492.833 985.077 490.2V489.75C985.077 485.117 986.727 481.633 990.027 479.3C993.327 476.933 998.211 475.75 1004.68 475.75C1008.51 475.75 1011.89 476.133 1014.83 476.9C1017.79 477.633 1020.26 478.517 1022.23 479.55L1023.38 489.75C1021.04 488.65 1018.43 487.733 1015.53 487C1012.63 486.233 1009.51 485.85 1006.18 485.85C1004.01 485.85 1002.29 486.033 1001.03 486.4C999.794 486.733 998.911 487.217 998.377 487.85C997.844 488.483 997.577 489.25 997.577 490.15V490.4C997.577 491.4 997.861 492.267 998.427 493C999.027 493.733 1000.11 494.4 1001.68 495C1003.24 495.567 1005.44 496.183 1008.28 496.85C1012.41 497.717 1015.73 498.733 1018.23 499.9C1020.73 501.067 1022.54 502.567 1023.68 504.4C1024.81 506.2 1025.38 508.567 1025.38 511.5V512.1C1025.38 517.167 1023.66 520.95 1020.23 523.45C1016.79 525.95 1011.59 527.2 1004.63 527.2ZM1039.71 527.2C1037.25 527.2 1035.43 526.55 1034.26 525.25C1033.1 523.95 1032.51 522.15 1032.51 519.85V519.35C1032.51 517.017 1033.1 515.2 1034.26 513.9C1035.43 512.6 1037.25 511.95 1039.71 511.95C1042.15 511.95 1043.96 512.6 1045.16 513.9C1046.36 515.2 1046.96 517.017 1046.96 519.35V519.85C1046.96 522.15 1046.36 523.95 1045.16 525.25C1043.96 526.55 1042.15 527.2 1039.71 527.2ZM1086.83 526.95C1084.76 526.95 1082.7 526.783 1080.63 526.45C1078.56 526.117 1076.7 525.617 1075.03 524.95L1074.08 513.7C1075.68 514.3 1077.28 514.767 1078.88 515.1C1080.51 515.433 1082.2 515.6 1083.93 515.6C1087.83 515.6 1090.48 514.733 1091.88 513C1093.31 511.233 1094.03 508.55 1094.03 504.95V462.1H1107.18V505.75C1107.18 512.717 1105.63 518 1102.53 521.6C1099.43 525.167 1094.2 526.95 1086.83 526.95ZM1117.94 476.95H1130.74V506.45C1130.74 508.483 1131.01 510.267 1131.54 511.8C1132.11 513.3 1133.03 514.467 1134.29 515.3C1135.59 516.1 1137.33 516.5 1139.49 516.5C1141.46 516.5 1143.16 516.15 1144.59 515.45C1146.03 514.75 1147.21 513.817 1148.14 512.65C1149.08 511.45 1149.76 510.117 1150.19 508.65L1152.19 515.6H1149.79C1149.26 517.733 1148.36 519.683 1147.09 521.45C1145.86 523.183 1144.16 524.567 1141.99 525.6C1139.86 526.633 1137.18 527.15 1133.94 527.15C1130.21 527.15 1127.16 526.433 1124.79 525C1122.46 523.567 1120.73 521.45 1119.59 518.65C1118.49 515.85 1117.94 512.4 1117.94 508.3V476.95ZM1149.89 476.95H1162.69V526H1149.94L1150.39 514.1L1149.89 513.05V476.95ZM1190.66 527.2C1186.73 527.2 1183.23 526.817 1180.16 526.05C1177.13 525.317 1174.55 524.483 1172.41 523.55L1171.26 512.45C1173.8 513.617 1176.58 514.633 1179.61 515.5C1182.68 516.367 1186.05 516.8 1189.71 516.8C1192.91 516.8 1195.23 516.4 1196.66 515.6C1198.1 514.767 1198.81 513.533 1198.81 511.9V511.6C1198.81 510.5 1198.48 509.6 1197.81 508.9C1197.18 508.2 1196.05 507.567 1194.41 507C1192.78 506.4 1190.48 505.767 1187.51 505.1C1183.41 504.133 1180.16 503.017 1177.76 501.75C1175.4 500.45 1173.7 498.867 1172.66 497C1171.63 495.1 1171.11 492.833 1171.11 490.2V489.75C1171.11 485.117 1172.76 481.633 1176.06 479.3C1179.36 476.933 1184.25 475.75 1190.71 475.75C1194.55 475.75 1197.93 476.133 1200.86 476.9C1203.83 477.633 1206.3 478.517 1208.26 479.55L1209.41 489.75C1207.08 488.65 1204.46 487.733 1201.56 487C1198.66 486.233 1195.55 485.85 1192.21 485.85C1190.05 485.85 1188.33 486.033 1187.06 486.4C1185.83 486.733 1184.95 487.217 1184.41 487.85C1183.88 488.483 1183.61 489.25 1183.61 490.15V490.4C1183.61 491.4 1183.9 492.267 1184.46 493C1185.06 493.733 1186.15 494.4 1187.71 495C1189.28 495.567 1191.48 496.183 1194.31 496.85C1198.45 497.717 1201.76 498.733 1204.26 499.9C1206.76 501.067 1208.58 502.567 1209.71 504.4C1210.85 506.2 1211.41 508.567 1211.41 511.5V512.1C1211.41 517.167 1209.7 520.95 1206.26 523.45C1202.83 525.95 1197.63 527.2 1190.66 527.2ZM1238.13 527.05C1233.96 527.05 1230.63 526.433 1228.13 525.2C1225.66 523.933 1223.88 522.033 1222.78 519.5C1221.68 516.967 1221.13 513.85 1221.13 510.15V481.55H1233.83V508.25C1233.83 510.917 1234.43 512.883 1235.63 514.15C1236.86 515.383 1239.01 516 1242.08 516C1243.88 516 1245.61 515.817 1247.28 515.45C1248.94 515.05 1250.48 514.533 1251.88 513.9L1250.78 524.6C1249.11 525.367 1247.19 525.967 1245.03 526.4C1242.89 526.833 1240.59 527.05 1238.13 527.05ZM1250.33 487.45H1214.03V477.35H1251.43L1250.33 487.45ZM1233.48 478.3H1221.28L1221.23 465.3L1233.98 464L1233.48 478.3ZM1297.51 458.35C1300.11 458.35 1302.51 458.567 1304.71 459C1306.91 459.433 1308.86 459.967 1310.56 460.6L1311.71 470.2C1310.28 469.767 1308.78 469.417 1307.21 469.15C1305.68 468.85 1303.98 468.7 1302.11 468.7C1299.88 468.7 1298.11 468.95 1296.81 469.45C1295.54 469.95 1294.64 470.667 1294.11 471.6C1293.58 472.533 1293.31 473.633 1293.31 474.9V475.05C1293.31 475.95 1293.44 476.8 1293.71 477.6C1293.98 478.4 1294.29 479.117 1294.66 479.75L1286.31 480.05V478.7C1284.78 477.967 1283.48 476.883 1282.41 475.45C1281.34 474.017 1280.81 472.233 1280.81 470.1V469.85C1280.81 466.317 1282.16 463.517 1284.86 461.45C1287.59 459.383 1291.81 458.35 1297.51 458.35ZM1295.26 526H1282.51V482.7H1295.26V526ZM1310.51 489.2H1275.41V479.05L1287.81 479.15L1292.81 479.05H1311.61L1310.51 489.2ZM1331.16 526H1318.36V459.9H1331.16V526ZM1363.77 527.35C1356.17 527.35 1350.4 525.4 1346.47 521.5C1342.57 517.6 1340.62 512.05 1340.62 504.85V498.2C1340.62 490.967 1342.57 485.4 1346.47 481.5C1350.4 477.567 1356.17 475.6 1363.77 475.6C1371.33 475.6 1377.07 477.567 1380.97 481.5C1384.87 485.4 1386.82 490.967 1386.82 498.2V504.85C1386.82 512.05 1384.87 517.6 1380.97 521.5C1377.1 525.4 1371.37 527.35 1363.77 527.35ZM1363.77 517.1C1367.1 517.1 1369.63 516.1 1371.37 514.1C1373.13 512.1 1374.02 509.233 1374.02 505.5V497.55C1374.02 493.75 1373.13 490.85 1371.37 488.85C1369.63 486.817 1367.1 485.8 1363.77 485.8C1360.4 485.8 1357.83 486.817 1356.07 488.85C1354.33 490.85 1353.47 493.75 1353.47 497.55V505.5C1353.47 509.233 1354.33 512.1 1356.07 514.1C1357.83 516.1 1360.4 517.1 1363.77 517.1ZM1420.55 526H1401.9L1391.3 476.95H1404.4L1411.6 516.9H1412.5L1419.8 478.2H1436.3L1443.65 516.9H1444.5L1451.8 476.95H1464.75L1454.15 526H1435.55L1429.55 493.55L1428.45 487.5H1427.7L1426.6 493.55L1420.55 526ZM1474.68 527.2C1472.21 527.2 1470.39 526.55 1469.23 525.25C1468.06 523.95 1467.48 522.15 1467.48 519.85V519.35C1467.48 517.017 1468.06 515.2 1469.23 513.9C1470.39 512.6 1472.21 511.95 1474.68 511.95C1477.11 511.95 1478.93 512.6 1480.13 513.9C1481.33 515.2 1481.93 517.017 1481.93 519.35V519.85C1481.93 522.15 1481.33 523.95 1480.13 525.25C1478.93 526.55 1477.11 527.2 1474.68 527.2Z" fill="black"/>
<path d="M0 424V104H111V265L210 104H319.773C319.773 104 321.5 152.842 275.5 197C229.5 241.158 167.5 245 167.5 245C167.5 245 229.5 247.5 285.5 300.5C341.5 353.5 337 424 337 424H218C218 424 221.5 394.5 190 357C158.5 319.5 111 319 111 319V424H0Z" fill="#A9ED42"/>
<path d="M554.9 394C530.9 415 498.95 425.5 459.05 425.5C419.15 425.5 387.05 415 362.75 394C338.75 372.7 326.75 343.9 326.75 307.6C326.75 271 338.75 242.2 362.75 221.2C387.05 200.2 419.15 189.7 459.05 189.7C498.95 189.7 530.9 200.2 554.9 221.2C579.2 242.2 591.35 271 591.35 307.6C591.35 343.9 579.2 372.7 554.9 394ZM420.35 341.8C427.25 347.8 440.15 350.8 459.05 350.8C477.95 350.8 490.7 347.8 497.3 341.8C504.2 335.5 507.65 324.1 507.65 307.6C507.65 291.1 504.2 279.7 497.3 273.4C490.7 267.1 477.95 263.95 459.05 263.95C440.15 263.95 427.25 267.1 420.35 273.4C413.75 279.7 410.45 291.1 410.45 307.6C410.45 324.1 413.75 335.5 420.35 341.8ZM704.824 425.5C674.224 425.5 650.974 417.7 635.074 402.1C619.474 386.2 611.674 365.35 611.674 339.55V194.2H696.274V308.5C696.274 324.4 699.874 335.35 707.074 341.35C714.574 347.05 727.924 349.9 747.124 349.9C766.324 349.9 779.224 347.2 785.824 341.8C792.424 336.4 795.724 326.2 795.724 311.2V194.2H880.324V421H801.124V352.15H796.624C793.924 373.45 785.074 391 770.074 404.8C755.374 418.6 733.624 425.5 704.824 425.5ZM1075.32 421H1015.92C986.818 421 964.468 413.8 948.868 399.4C933.268 385 925.468 363.4 925.468 334.6V263.5H892.168V194.2H925.468V155.05H1010.07V194.2H1075.32V263.5H1010.07V322.45C1010.07 331.45 1011.72 337.45 1015.02 340.45C1018.62 343.45 1025.22 344.95 1034.82 344.95H1075.32V421ZM1180.11 173.5H1095.51V119.5H1180.11V173.5ZM1180.11 421H1095.51V194.2H1180.11V421ZM1291.28 421H1189.13L1273.73 311.2V306.7L1189.13 194.2H1292.63L1338.98 262.6H1343.48L1388.03 194.2H1490.18L1405.58 305.35V309.85L1490.18 421H1386.68L1340.33 354.4H1335.83L1291.28 421Z" fill="#A9ED42"/>
</svg>
