<svg width="1491" height="554" viewBox="0 0 1491 554" fill="none" xmlns="http://www.w3.org/2000/svg">
<path d="M0 424V104H111V265L210 104H319.773C319.773 104 321.5 152.842 275.5 197C229.5 241.158 167.5 245 167.5 245C167.5 245 229.5 247.5 285.5 300.5C341.5 353.5 337 424 337 424H218C218 424 221.5 394.5 190 357C158.5 319.5 111 319 111 319V424H0Z" fill="#4A171E"/>
<path d="M554.9 394C530.9 415 498.95 425.5 459.05 425.5C419.15 425.5 387.05 415 362.75 394C338.75 372.7 326.75 343.9 326.75 307.6C326.75 271 338.75 242.2 362.75 221.2C387.05 200.2 419.15 189.7 459.05 189.7C498.95 189.7 530.9 200.2 554.9 221.2C579.2 242.2 591.35 271 591.35 307.6C591.35 343.9 579.2 372.7 554.9 394ZM420.35 341.8C427.25 347.8 440.15 350.8 459.05 350.8C477.95 350.8 490.7 347.8 497.3 341.8C504.2 335.5 507.65 324.1 507.65 307.6C507.65 291.1 504.2 279.7 497.3 273.4C490.7 267.1 477.95 263.95 459.05 263.95C440.15 263.95 427.25 267.1 420.35 273.4C413.75 279.7 410.45 291.1 410.45 307.6C410.45 324.1 413.75 335.5 420.35 341.8ZM704.824 425.5C674.224 425.5 650.974 417.7 635.074 402.1C619.474 386.2 611.674 365.35 611.674 339.55V194.2H696.274V308.5C696.274 324.4 699.874 335.35 707.074 341.35C714.574 347.05 727.924 349.9 747.124 349.9C766.324 349.9 779.224 347.2 785.824 341.8C792.424 336.4 795.724 326.2 795.724 311.2V194.2H880.324V421H801.124V352.15H796.624C793.924 373.45 785.074 391 770.074 404.8C755.374 418.6 733.624 425.5 704.824 425.5ZM1075.32 421H1015.92C986.818 421 964.468 413.8 948.868 399.4C933.268 385 925.468 363.4 925.468 334.6V263.5H892.168V194.2H925.468V155.05H1010.07V194.2H1075.32V263.5H1010.07V322.45C1010.07 331.45 1011.72 337.45 1015.02 340.45C1018.62 343.45 1025.22 344.95 1034.82 344.95H1075.32V421ZM1180.11 173.5H1095.51V119.5H1180.11V173.5ZM1180.11 421H1095.51V194.2H1180.11V421ZM1291.28 421H1189.13L1273.73 311.2V306.7L1189.13 194.2H1292.63L1338.98 262.6H1343.48L1388.03 194.2H1490.18L1405.58 305.35V309.85L1490.18 421H1386.68L1340.33 354.4H1335.83L1291.28 421Z" fill="#4A171E"/>
</svg>
