<svg width="1497" height="646" viewBox="0 0 1497 646" fill="none" xmlns="http://www.w3.org/2000/svg">
<path d="M408.62 486.32H431L455.12 545.84H455.9L455.24 513.14V486.32H470.3V563H448.58L423.86 502.4H423.08L423.74 536.12V563H408.62V486.32ZM510.155 564.62C501.035 564.62 494.115 562.28 489.395 557.6C484.715 552.92 482.375 546.26 482.375 537.62V529.64C482.375 520.96 484.715 514.28 489.395 509.6C494.115 504.88 501.035 502.52 510.155 502.52C519.235 502.52 526.115 504.88 530.795 509.6C535.475 514.28 537.815 520.96 537.815 529.64V537.62C537.815 546.26 535.475 552.92 530.795 557.6C526.155 562.28 519.275 564.62 510.155 564.62ZM510.155 552.32C514.155 552.32 517.195 551.12 519.275 548.72C521.395 546.32 522.455 542.88 522.455 538.4V528.86C522.455 524.3 521.395 520.82 519.275 518.42C517.195 515.98 514.155 514.76 510.155 514.76C506.115 514.76 503.035 515.98 500.915 518.42C498.835 520.82 497.795 524.3 497.795 528.86V538.4C497.795 542.88 498.835 546.32 500.915 548.72C503.035 551.12 506.115 552.32 510.155 552.32ZM593.323 564.38C586.403 564.38 581.143 562.14 577.543 557.66C573.943 553.18 572.143 546.58 572.143 537.86V529.76C572.143 520.92 573.963 514.22 577.603 509.66C581.243 505.1 586.663 502.82 593.863 502.82C597.423 502.82 600.423 503.38 602.863 504.5C605.303 505.62 607.283 507.22 608.803 509.3C610.323 511.38 611.403 513.82 612.043 516.62H616.483L612.403 528.02C612.323 525.22 611.723 522.86 610.603 520.94C609.523 519.02 608.043 517.58 606.163 516.62C604.283 515.66 602.063 515.18 599.503 515.18C595.663 515.18 592.723 516.32 590.683 518.6C588.643 520.84 587.623 524.2 587.623 528.68V538.22C587.623 542.66 588.643 546 590.683 548.24C592.763 550.48 595.763 551.6 599.683 551.6C601.963 551.6 603.983 551.18 605.743 550.34C607.503 549.5 608.963 548.36 610.123 546.92C611.323 545.44 612.183 543.78 612.703 541.94L616.243 550.52H611.923C611.323 553.08 610.303 555.42 608.863 557.54C607.423 559.62 605.443 561.28 602.923 562.52C600.443 563.76 597.243 564.38 593.323 564.38ZM627.523 583.64H612.163V564.26L612.583 547.94L612.403 545.42V521.36L612.703 518.18L612.163 504.14H627.523V583.64ZM640.323 504.14H655.683V539.54C655.683 541.98 656.003 544.12 656.643 545.96C657.323 547.76 658.423 549.16 659.943 550.16C661.503 551.12 663.583 551.6 666.183 551.6C668.543 551.6 670.583 551.18 672.303 550.34C674.023 549.5 675.443 548.38 676.563 546.98C677.683 545.54 678.503 543.94 679.023 542.18L681.423 550.52H678.543C677.903 553.08 676.823 555.42 675.303 557.54C673.823 559.62 671.783 561.28 669.183 562.52C666.623 563.76 663.403 564.38 659.523 564.38C655.043 564.38 651.383 563.52 648.543 561.8C645.743 560.08 643.663 557.54 642.303 554.18C640.983 550.82 640.323 546.68 640.323 541.76V504.14ZM678.663 504.14H694.023V563H678.723L679.263 548.72L678.663 547.46V504.14ZM735.146 564.44C725.066 564.44 717.566 562.12 712.646 557.48C707.726 552.84 705.266 546.12 705.266 537.32V529.64C705.266 520.92 707.566 514.22 712.166 509.54C716.766 504.86 723.446 502.52 732.206 502.52C738.126 502.52 743.066 503.56 747.026 505.64C750.986 507.72 753.946 510.68 755.906 514.52C757.906 518.32 758.906 522.88 758.906 528.2V530.3C758.906 531.74 758.826 533.22 758.666 534.74C758.546 536.22 758.366 537.62 758.126 538.94H744.206C744.326 536.74 744.386 534.66 744.386 532.7C744.426 530.7 744.446 528.9 744.446 527.3C744.446 524.54 744.006 522.2 743.126 520.28C742.246 518.32 740.906 516.84 739.106 515.84C737.306 514.84 735.006 514.34 732.206 514.34C728.086 514.34 725.046 515.48 723.086 517.76C721.126 520.04 720.146 523.28 720.146 527.48V532.94L720.206 534.68V539.3C720.206 541.14 720.486 542.84 721.046 544.4C721.646 545.96 722.626 547.32 723.986 548.48C725.346 549.6 727.146 550.48 729.386 551.12C731.666 551.76 734.506 552.08 737.906 552.08C741.586 552.08 745.086 551.68 748.406 550.88C751.766 550.04 754.946 548.92 757.946 547.52L756.626 559.64C753.946 561.12 750.786 562.28 747.146 563.12C743.546 564 739.546 564.44 735.146 564.44ZM755.006 538.94H713.426V528.74H755.006V538.94ZM769.112 504.14H784.472V539.54C784.472 541.98 784.792 544.12 785.432 545.96C786.112 547.76 787.212 549.16 788.732 550.16C790.292 551.12 792.372 551.6 794.972 551.6C797.332 551.6 799.372 551.18 801.092 550.34C802.812 549.5 804.232 548.38 805.352 546.98C806.472 545.54 807.292 543.94 807.812 542.18L810.212 550.52H807.332C806.692 553.08 805.612 555.42 804.092 557.54C802.612 559.62 800.572 561.28 797.972 562.52C795.412 563.76 792.192 564.38 788.312 564.38C783.832 564.38 780.172 563.52 777.332 561.8C774.532 560.08 772.452 557.54 771.092 554.18C769.772 550.82 769.112 546.68 769.112 541.76V504.14ZM807.452 504.14H822.812V563H807.512L808.052 548.72L807.452 547.46V504.14ZM863.935 564.44C853.855 564.44 846.355 562.12 841.435 557.48C836.515 552.84 834.055 546.12 834.055 537.32V529.64C834.055 520.92 836.355 514.22 840.955 509.54C845.555 504.86 852.235 502.52 860.995 502.52C866.915 502.52 871.855 503.56 875.815 505.64C879.775 507.72 882.735 510.68 884.695 514.52C886.695 518.32 887.695 522.88 887.695 528.2V530.3C887.695 531.74 887.615 533.22 887.455 534.74C887.335 536.22 887.155 537.62 886.915 538.94H872.995C873.115 536.74 873.175 534.66 873.175 532.7C873.215 530.7 873.235 528.9 873.235 527.3C873.235 524.54 872.795 522.2 871.915 520.28C871.035 518.32 869.695 516.84 867.895 515.84C866.095 514.84 863.795 514.34 860.995 514.34C856.875 514.34 853.835 515.48 851.875 517.76C849.915 520.04 848.935 523.28 848.935 527.48V532.94L848.995 534.68V539.3C848.995 541.14 849.275 542.84 849.835 544.4C850.435 545.96 851.415 547.32 852.775 548.48C854.135 549.6 855.935 550.48 858.175 551.12C860.455 551.76 863.295 552.08 866.695 552.08C870.375 552.08 873.875 551.68 877.195 550.88C880.555 550.04 883.735 548.92 886.735 547.52L885.415 559.64C882.735 561.12 879.575 562.28 875.935 563.12C872.335 564 868.335 564.44 863.935 564.44ZM883.795 538.94H842.215V528.74H883.795V538.94ZM918.953 564.44C914.233 564.44 910.033 563.98 906.353 563.06C902.713 562.18 899.613 561.18 897.053 560.06L895.673 546.74C898.713 548.14 902.053 549.36 905.693 550.4C909.373 551.44 913.413 551.96 917.813 551.96C921.653 551.96 924.433 551.48 926.153 550.52C927.873 549.52 928.733 548.04 928.733 546.08V545.72C928.733 544.4 928.333 543.32 927.533 542.48C926.773 541.64 925.413 540.88 923.453 540.2C921.493 539.48 918.733 538.72 915.173 537.92C910.253 536.76 906.353 535.42 903.473 533.9C900.633 532.34 898.593 530.44 897.353 528.2C896.113 525.92 895.493 523.2 895.493 520.04V519.5C895.493 513.94 897.473 509.76 901.433 506.96C905.393 504.12 911.253 502.7 919.013 502.7C923.613 502.7 927.673 503.16 931.193 504.08C934.753 504.96 937.713 506.02 940.073 507.26L941.453 519.5C938.653 518.18 935.513 517.08 932.033 516.2C928.553 515.28 924.813 514.82 920.813 514.82C918.213 514.82 916.153 515.04 914.633 515.48C913.153 515.88 912.093 516.46 911.453 517.22C910.813 517.98 910.493 518.9 910.493 519.98V520.28C910.493 521.48 910.833 522.52 911.513 523.4C912.233 524.28 913.533 525.08 915.413 525.8C917.293 526.48 919.933 527.22 923.333 528.02C928.293 529.06 932.273 530.28 935.273 531.68C938.273 533.08 940.453 534.88 941.813 537.08C943.173 539.24 943.853 542.08 943.853 545.6V546.32C943.853 552.4 941.793 556.94 937.673 559.94C933.553 562.94 927.313 564.44 918.953 564.44ZM961.057 564.44C958.097 564.44 955.917 563.66 954.517 562.1C953.117 560.54 952.417 558.38 952.417 555.62V555.02C952.417 552.22 953.117 550.04 954.517 548.48C955.917 546.92 958.097 546.14 961.057 546.14C963.977 546.14 966.157 546.92 967.597 548.48C969.037 550.04 969.757 552.22 969.757 555.02V555.62C969.757 558.38 969.037 560.54 967.597 562.1C966.157 563.66 963.977 564.44 961.057 564.44ZM1017.6 564.14C1015.12 564.14 1012.64 563.94 1010.16 563.54C1007.68 563.14 1005.44 562.54 1003.44 561.74L1002.3 548.24C1004.22 548.96 1006.14 549.52 1008.06 549.92C1010.02 550.32 1012.04 550.52 1014.12 550.52C1018.8 550.52 1021.98 549.48 1023.66 547.4C1025.38 545.28 1026.24 542.06 1026.24 537.74V486.32H1042.02V538.7C1042.02 547.06 1040.16 553.4 1036.44 557.72C1032.72 562 1026.44 564.14 1017.6 564.14ZM1054.93 504.14H1070.29V539.54C1070.29 541.98 1070.61 544.12 1071.25 545.96C1071.93 547.76 1073.03 549.16 1074.55 550.16C1076.11 551.12 1078.19 551.6 1080.79 551.6C1083.15 551.6 1085.19 551.18 1086.91 550.34C1088.63 549.5 1090.05 548.38 1091.17 546.98C1092.29 545.54 1093.11 543.94 1093.63 542.18L1096.03 550.52H1093.15C1092.51 553.08 1091.43 555.42 1089.91 557.54C1088.43 559.62 1086.39 561.28 1083.79 562.52C1081.23 563.76 1078.01 564.38 1074.13 564.38C1069.65 564.38 1065.99 563.52 1063.15 561.8C1060.35 560.08 1058.27 557.54 1056.91 554.18C1055.59 550.82 1054.93 546.68 1054.93 541.76V504.14ZM1093.27 504.14H1108.63V563H1093.33L1093.87 548.72L1093.27 547.46V504.14ZM1142.2 564.44C1137.48 564.44 1133.28 563.98 1129.6 563.06C1125.96 562.18 1122.86 561.18 1120.3 560.06L1118.92 546.74C1121.96 548.14 1125.3 549.36 1128.94 550.4C1132.62 551.44 1136.66 551.96 1141.06 551.96C1144.9 551.96 1147.68 551.48 1149.4 550.52C1151.12 549.52 1151.98 548.04 1151.98 546.08V545.72C1151.98 544.4 1151.58 543.32 1150.78 542.48C1150.02 541.64 1148.66 540.88 1146.7 540.2C1144.74 539.48 1141.98 538.72 1138.42 537.92C1133.5 536.76 1129.6 535.42 1126.72 533.9C1123.88 532.34 1121.84 530.44 1120.6 528.2C1119.36 525.92 1118.74 523.2 1118.74 520.04V519.5C1118.74 513.94 1120.72 509.76 1124.68 506.96C1128.64 504.12 1134.5 502.7 1142.26 502.7C1146.86 502.7 1150.92 503.16 1154.44 504.08C1158 504.96 1160.96 506.02 1163.32 507.26L1164.7 519.5C1161.9 518.18 1158.76 517.08 1155.28 516.2C1151.8 515.28 1148.06 514.82 1144.06 514.82C1141.46 514.82 1139.4 515.04 1137.88 515.48C1136.4 515.88 1135.34 516.46 1134.7 517.22C1134.06 517.98 1133.74 518.9 1133.74 519.98V520.28C1133.74 521.48 1134.08 522.52 1134.76 523.4C1135.48 524.28 1136.78 525.08 1138.66 525.8C1140.54 526.48 1143.18 527.22 1146.58 528.02C1151.54 529.06 1155.52 530.28 1158.52 531.68C1161.52 533.08 1163.7 534.88 1165.06 537.08C1166.42 539.24 1167.1 542.08 1167.1 545.6V546.32C1167.1 552.4 1165.04 556.94 1160.92 559.94C1156.8 562.94 1150.56 564.44 1142.2 564.44ZM1199.15 564.26C1194.15 564.26 1190.15 563.52 1187.15 562.04C1184.19 560.52 1182.05 558.24 1180.73 555.2C1179.41 552.16 1178.75 548.42 1178.75 543.98V509.66H1193.99V541.7C1193.99 544.9 1194.71 547.26 1196.15 548.78C1197.63 550.26 1200.21 551 1203.89 551C1206.05 551 1208.13 550.78 1210.13 550.34C1212.13 549.86 1213.97 549.24 1215.65 548.48L1214.33 561.32C1212.33 562.24 1210.03 562.96 1207.43 563.48C1204.87 564 1202.11 564.26 1199.15 564.26ZM1213.79 516.74H1170.23V504.62H1215.11L1213.79 516.74ZM1193.57 505.76H1178.93L1178.87 490.16L1194.17 488.6L1193.57 505.76ZM1270.41 481.82C1273.53 481.82 1276.41 482.08 1279.05 482.6C1281.69 483.12 1284.03 483.76 1286.07 484.52L1287.45 496.04C1285.73 495.52 1283.93 495.1 1282.05 494.78C1280.21 494.42 1278.17 494.24 1275.93 494.24C1273.25 494.24 1271.13 494.54 1269.57 495.14C1268.05 495.74 1266.97 496.6 1266.33 497.72C1265.69 498.84 1265.37 500.16 1265.37 501.68V501.86C1265.37 502.94 1265.53 503.96 1265.85 504.92C1266.17 505.88 1266.55 506.74 1266.99 507.5L1256.97 507.86V506.24C1255.13 505.36 1253.57 504.06 1252.29 502.34C1251.01 500.62 1250.37 498.48 1250.37 495.92V495.62C1250.37 491.38 1251.99 488.02 1255.23 485.54C1258.51 483.06 1263.57 481.82 1270.41 481.82ZM1267.71 563H1252.41V511.04H1267.71V563ZM1286.01 518.84H1243.89V506.66L1258.77 506.78L1264.77 506.66H1287.33L1286.01 518.84ZM1310.79 563H1295.43V483.68H1310.79V563ZM1349.92 564.62C1340.8 564.62 1333.88 562.28 1329.16 557.6C1324.48 552.92 1322.14 546.26 1322.14 537.62V529.64C1322.14 520.96 1324.48 514.28 1329.16 509.6C1333.88 504.88 1340.8 502.52 1349.92 502.52C1359 502.52 1365.88 504.88 1370.56 509.6C1375.24 514.28 1377.58 520.96 1377.58 529.64V537.62C1377.58 546.26 1375.24 552.92 1370.56 557.6C1365.92 562.28 1359.04 564.62 1349.92 564.62ZM1349.92 552.32C1353.92 552.32 1356.96 551.12 1359.04 548.72C1361.16 546.32 1362.22 542.88 1362.22 538.4V528.86C1362.22 524.3 1361.16 520.82 1359.04 518.42C1356.96 515.98 1353.92 514.76 1349.92 514.76C1345.88 514.76 1342.8 515.98 1340.68 518.42C1338.6 520.82 1337.56 524.3 1337.56 528.86V538.4C1337.56 542.88 1338.6 546.32 1340.68 548.72C1342.8 551.12 1345.88 552.32 1349.92 552.32ZM1418.06 563H1395.68L1382.96 504.14H1398.68L1407.32 552.08H1408.4L1417.16 505.64H1436.96L1445.78 552.08H1446.8L1455.56 504.14H1471.1L1458.38 563H1436.06L1428.86 524.06L1427.54 516.8H1426.64L1425.32 524.06L1418.06 563ZM1483.01 564.44C1480.05 564.44 1477.87 563.66 1476.47 562.1C1475.07 560.54 1474.37 558.38 1474.37 555.62V555.02C1474.37 552.22 1475.07 550.04 1476.47 548.48C1477.87 546.92 1480.05 546.14 1483.01 546.14C1485.93 546.14 1488.11 546.92 1489.55 548.48C1490.99 550.04 1491.71 552.22 1491.71 555.02V555.62C1491.71 558.38 1490.99 560.54 1489.55 562.1C1488.11 563.66 1485.93 564.44 1483.01 564.44Z" fill="white"/>
<path d="M0 424V104H111V265L210 104H319.773C319.773 104 321.5 152.842 275.5 197C229.5 241.158 167.5 245 167.5 245C167.5 245 229.5 247.5 285.5 300.5C341.5 353.5 337 424 337 424H218C218 424 221.5 394.5 190 357C158.5 319.5 111 319 111 319V424H0Z" fill="#A9ED42"/>
<path d="M554.9 394C530.9 415 498.95 425.5 459.05 425.5C419.15 425.5 387.05 415 362.75 394C338.75 372.7 326.75 343.9 326.75 307.6C326.75 271 338.75 242.2 362.75 221.2C387.05 200.2 419.15 189.7 459.05 189.7C498.95 189.7 530.9 200.2 554.9 221.2C579.2 242.2 591.35 271 591.35 307.6C591.35 343.9 579.2 372.7 554.9 394ZM420.35 341.8C427.25 347.8 440.15 350.8 459.05 350.8C477.95 350.8 490.7 347.8 497.3 341.8C504.2 335.5 507.65 324.1 507.65 307.6C507.65 291.1 504.2 279.7 497.3 273.4C490.7 267.1 477.95 263.95 459.05 263.95C440.15 263.95 427.25 267.1 420.35 273.4C413.75 279.7 410.45 291.1 410.45 307.6C410.45 324.1 413.75 335.5 420.35 341.8ZM704.824 425.5C674.224 425.5 650.974 417.7 635.074 402.1C619.474 386.2 611.674 365.35 611.674 339.55V194.2H696.274V308.5C696.274 324.4 699.874 335.35 707.074 341.35C714.574 347.05 727.924 349.9 747.124 349.9C766.324 349.9 779.224 347.2 785.824 341.8C792.424 336.4 795.724 326.2 795.724 311.2V194.2H880.324V421H801.124V352.15H796.624C793.924 373.45 785.074 391 770.074 404.8C755.374 418.6 733.624 425.5 704.824 425.5ZM1075.32 421H1015.92C986.818 421 964.468 413.8 948.868 399.4C933.268 385 925.468 363.4 925.468 334.6V263.5H892.168V194.2H925.468V155.05H1010.07V194.2H1075.32V263.5H1010.07V322.45C1010.07 331.45 1011.72 337.45 1015.02 340.45C1018.62 343.45 1025.22 344.95 1034.82 344.95H1075.32V421ZM1180.11 173.5H1095.51V119.5H1180.11V173.5ZM1180.11 421H1095.51V194.2H1180.11V421ZM1291.28 421H1189.13L1273.73 311.2V306.7L1189.13 194.2H1292.63L1338.98 262.6H1343.48L1388.03 194.2H1490.18L1405.58 305.35V309.85L1490.18 421H1386.68L1340.33 354.4H1335.83L1291.28 421Z" fill="#A9ED42"/>
</svg>
